<svg version="1.1" id="Layer_1" xmlns="http://www.w3.org/2000/svg" xmlns:xlink="http://www.w3.org/1999/xlink" x="0px" y="0px"
	 width="100%" viewBox="0 0 128 128" enable-background="new 0 0 128 128" xml:space="preserve">
<path fill="#010101" opacity="1.000000" stroke="none" 
	d="
M1.000000,115.000000 
	C1.000000,81.979103 1.000000,48.958210 1.000500,15.103909 
	C3.324063,7.375094 7.737639,2.684961 15.000000,1.000000 
	C48.020893,1.000000 81.041786,1.000000 114.896225,1.000500 
	C122.636162,3.313607 127.308006,7.744442 129.000000,15.000000 
	C129.000000,48.020893 129.000000,81.041786 128.999496,114.895844 
	C126.680573,122.629379 122.265549,127.318138 115.000000,129.000000 
	C81.979103,129.000000 48.958210,129.000000 15.103960,128.999496 
	C7.362159,126.688278 2.688515,122.259048 1.000000,115.000000 
M79.686256,79.718971 
	C84.300201,78.759949 88.914146,77.800926 94.674377,76.603645 
	C95.567291,77.738457 97.314911,79.959518 99.324371,82.513351 
	C101.386406,80.517235 102.876511,79.074760 104.485733,77.516983 
	C102.039772,74.944611 100.020256,72.820732 98.182838,70.888359 
	C99.091904,69.079926 99.853859,67.785568 100.416435,66.409691 
	C104.632271,56.099155 100.367287,44.245640 90.611778,39.057655 
	C80.910011,33.898258 69.132393,36.769840 62.929688,46.089832 
	C53.782021,59.834812 62.557384,78.163322 79.686256,79.718971 
M23.140572,69.587234 
	C21.963388,72.597717 20.786203,75.608192 19.729128,78.311516 
	C27.864122,82.100784 27.970804,74.861610 30.195486,71.146484 
	C36.258797,71.146484 41.891491,71.146484 47.738056,71.146484 
	C49.327019,76.065506 50.801632,81.322426 58.235657,78.435715 
	C53.066723,65.737801 47.972557,53.010330 42.626659,40.389488 
	C42.029831,38.980461 40.073959,37.476196 38.615574,37.328671 
	C37.567753,37.222672 35.793934,39.086327 35.209564,40.443920 
	C31.155437,49.862316 27.328045,59.378311 23.140572,69.587234 
M108.468384,73.259888 
	C107.518120,76.795097 108.638268,79.361488 112.418205,79.567627 
	C113.825478,79.644363 116.196785,78.197701 116.570442,76.971092 
	C117.034065,75.449127 116.219849,72.121353 115.357376,71.898705 
	C113.394386,71.391960 111.064865,72.305069 108.468384,73.259888 
z"/>
<path fill="#F2F2F2" opacity="1.000000" stroke="none" 
	d="
M14.525872,1.000000 
	C7.737639,2.684961 3.324063,7.375094 1.000500,14.635250 
	C1.000000,10.409401 1.000000,5.818802 1.000000,1.000000 
	C5.348905,1.000000 9.700325,1.000000 14.525872,1.000000 
z"/>
<path fill="#F2F2F2" opacity="1.000000" stroke="none" 
	d="
M129.000000,14.525872 
	C127.308006,7.744442 122.636162,3.313607 115.364883,1.000500 
	C119.590599,1.000000 124.181190,1.000000 129.000000,1.000000 
	C129.000000,5.348905 129.000000,9.700325 129.000000,14.525872 
z"/>
<path fill="#F2F2F2" opacity="1.000000" stroke="none" 
	d="
M1.000000,115.474129 
	C2.688515,122.259048 7.362159,126.688278 14.635303,128.999496 
	C10.409401,129.000000 5.818802,129.000000 1.000000,129.000000 
	C1.000000,124.651093 1.000000,120.299675 1.000000,115.474129 
z"/>
<path fill="#F2F2F2" opacity="1.000000" stroke="none" 
	d="
M115.474129,129.000000 
	C122.265549,127.318138 126.680573,122.629379 128.999496,115.364502 
	C129.000000,119.590599 129.000000,124.181190 129.000000,129.000000 
	C124.651093,129.000000 120.299675,129.000000 115.474129,129.000000 
z"/>
<path fill="#F3F3F3" opacity="1.000000" stroke="none" 
	d="
M79.262764,79.716309 
	C62.557384,78.163322 53.782021,59.834812 62.929688,46.089832 
	C69.132393,36.769840 80.910011,33.898258 90.611778,39.057655 
	C100.367287,44.245640 104.632271,56.099155 100.416435,66.409691 
	C99.853859,67.785568 99.091904,69.079926 98.182838,70.888359 
	C100.020256,72.820732 102.039772,74.944611 104.485733,77.516983 
	C102.876511,79.074760 101.386406,80.517235 99.324371,82.513351 
	C97.314911,79.959518 95.567291,77.738457 94.674377,76.603645 
	C88.914146,77.800926 84.300201,78.759949 79.262764,79.716309 
M94.213593,61.965466 
	C95.661598,51.104557 90.866219,44.117085 81.501526,43.442390 
	C75.079994,42.979740 69.819878,46.394184 67.598343,52.467247 
	C65.259293,58.861565 67.128548,66.266235 72.041351,70.067284 
	C76.911606,73.835419 82.917023,73.963310 88.658768,69.781113 
	C85.934349,67.668236 83.337929,65.654633 80.397087,63.373913 
	C82.391708,61.398239 83.775314,60.027779 86.194534,57.631546 
	C87.918800,59.892338 89.354660,61.914558 90.938240,63.813602 
	C92.659332,65.877579 93.638359,65.069809 94.213593,61.965466 
z"/>
<path fill="#F6F6F6" opacity="1.000000" stroke="none" 
	d="
M23.284233,69.225113 
	C27.328045,59.378311 31.155437,49.862316 35.209564,40.443920 
	C35.793934,39.086327 37.567753,37.222672 38.615574,37.328671 
	C40.073959,37.476196 42.029831,38.980461 42.626659,40.389488 
	C47.972557,53.010330 53.066723,65.737801 58.235657,78.435715 
	C50.801632,81.322426 49.327019,76.065506 47.738056,71.146484 
	C41.891491,71.146484 36.258797,71.146484 30.195486,71.146484 
	C27.970804,74.861610 27.864122,82.100784 19.729128,78.311516 
	C20.786203,75.608192 21.963388,72.597717 23.284233,69.225113 
M39.405067,64.999893 
	C41.183918,64.999893 42.962772,64.999893 45.343170,64.999893 
	C43.164864,59.562313 41.189373,54.631023 38.832581,48.747906 
	C36.460484,54.796955 34.556122,59.653233 32.459461,64.999893 
	C34.907074,64.999893 36.702366,64.999893 39.405067,64.999893 
z"/>
<path fill="#EEEEEE" opacity="1.000000" stroke="none" 
	d="
M108.676346,72.950531 
	C111.064865,72.305069 113.394386,71.391960 115.357376,71.898705 
	C116.219849,72.121353 117.034065,75.449127 116.570442,76.971092 
	C116.196785,78.197701 113.825478,79.644363 112.418205,79.567627 
	C108.638268,79.361488 107.518120,76.795097 108.676346,72.950531 
z"/>
<path fill="#050505" opacity="1.000000" stroke="none" 
	d="
M94.147659,62.392784 
	C93.638359,65.069809 92.659332,65.877579 90.938240,63.813602 
	C89.354660,61.914558 87.918800,59.892338 86.194534,57.631546 
	C83.775314,60.027779 82.391708,61.398239 80.397087,63.373913 
	C83.337929,65.654633 85.934349,67.668236 88.658768,69.781113 
	C82.917023,73.963310 76.911606,73.835419 72.041351,70.067284 
	C67.128548,66.266235 65.259293,58.861565 67.598343,52.467247 
	C69.819878,46.394184 75.079994,42.979740 81.501526,43.442390 
	C90.866219,44.117085 95.661598,51.104557 94.147659,62.392784 
z"/>
<path fill="#080808" opacity="1.000000" stroke="none" 
	d="
M38.951363,64.999893 
	C36.702366,64.999893 34.907074,64.999893 32.459461,64.999893 
	C34.556122,59.653233 36.460484,54.796955 38.832581,48.747906 
	C41.189373,54.631023 43.164864,59.562313 45.343170,64.999893 
	C42.962772,64.999893 41.183918,64.999893 38.951363,64.999893 
z"/>
</svg>